Coordinates
version=1
nRows=6
nColumns=36
inDegrees=yes

Units are S.I. units (second, meters, Newtons, ...)
If the header above contains a line with 'inDegrees', this indicates whether rotational values are in degrees (yes) or radians (no).

endheader
time	pelvis_tilt	pelvis_list	pelvis_rotation	pelvis_tx	pelvis_ty	pelvis_tz	hip_flexion_r	hip_adduction_r	hip_rotation_r	knee_angle_r	knee_angle_r_beta	ankle_angle_r	subtalar_angle_r	mtp_angle_r	hip_flexion_l	hip_adduction_l	hip_rotation_l	knee_angle_l	knee_angle_l_beta	ankle_angle_l	subtalar_angle_l	mtp_angle_l	lumbar_extension	lumbar_bending	lumbar_rotation	arm_flex_r	arm_add_r	arm_rot_r	elbow_flex_r	pro_sup_r	arm_flex_l	arm_add_l	arm_rot_l	elbow_flex_l	pro_sup_l
      1.45833330	    -17.11624287	     -0.24731497	      4.97071032	     -0.54293748	      1.32521160	     -0.06023901	      0.94019262	     -1.87421193	     -5.13786492	     14.48977506	      0.25289428	    -19.94065071	     -4.59714630	     -7.49999987	      8.19873255	     -3.11386192	      4.25745118	     25.39011576	      0.44314112	    -22.70598655	     -6.13955651	     -7.49999987	      8.30781358	      0.82333822	     -4.89551184	     92.40984795	    -15.36274836	     59.23686835	     67.67539934	     75.81864169	     92.78927985	    -47.77984674	     45.07833277	    111.63552022	     72.79637470
      1.46250000	    -17.22174910	     -0.03053870	      4.68829291	     -0.53719205	      1.33258215	     -0.06445827	      1.04470030	     -2.47421427	     -6.31000182	     13.76540836	      0.24025170	    -21.77409746	     -2.93540116	     -7.49999987	      8.13588878	     -3.11346493	      3.11233127	     24.57824573	      0.42897131	    -24.06633077	     -4.70314592	     -7.49999987	      8.77954223	      0.55324743	     -4.59203048	     92.08752083	    -15.38382526	     59.57570791	     67.81730358	     75.87963478	     91.89789058	    -48.73890220	     45.32637669	    112.30382334	     72.86398285
      1.46666670	    -17.47558631	      0.33533909	      4.64178961	     -0.53121037	      1.33718186	     -0.06095351	      1.21885872	     -3.01677500	     -6.90914960	     13.27344045	      0.23166524	    -24.09967137	     -1.61806966	     -7.49999987	      8.12508474	     -2.95430964	      1.93091567	     23.68748997	      0.41342469	    -24.82331531	     -4.11785270	     -7.49999987	      9.22111745	      0.14190714	     -4.53468869	     91.89292314	    -15.44553379	     59.89151286	     67.91161167	     75.92233865	     91.41873138	    -49.50195823	     45.49414772	    112.46466154	     72.90420174
      1.47083330	    -18.02069830	      0.44235723	      4.95124687	     -0.53048228	      1.34511842	     -0.06128767	      1.98384706	     -3.50661028	     -6.93070983	     12.65013868	      0.22078657	    -25.65587944	     -0.32265721	     -7.49999987	      8.69622312	     -2.96945304	      1.73754313	     22.93395919	      0.40027310	    -24.57695921	     -2.29726640	     -7.49999987	      9.78952508	     -0.22281788	     -5.74508030	     91.32187188	    -16.88871613	     60.77629215	     71.25994455	     76.08421458	     90.59673791	    -52.15631239	     45.45503011	    115.81317049	     73.12481056
      1.47500000	    -18.46582760	      0.67625964	      4.65701423	     -0.52984235	      1.35654457	     -0.06215062	      2.81052847	     -3.92478652	     -6.43219760	     11.48645195	      0.20047641	    -28.96175397	      0.37959706	     -7.49999987	      9.63089789	     -2.86497435	      2.02709385	     22.14498699	      0.38650294	    -26.39508905	     -1.27896332	     -7.49999987	      9.46599014	     -0.28582200	     -5.78235743	     91.20549865	    -18.20447986	     60.90008751	     74.81178362	     76.19808240	     90.37639981	    -54.77846121	     45.00124180	    118.82049280	     73.36224996
      1.47916670	    -18.52914023	      1.13406168	      4.30036356	     -0.51871480	      1.36544132	     -0.06188436	      2.84564482	     -4.29803909	     -6.20867250	     10.06770422	      0.17571459	    -32.68183780	      0.78850298	     -7.49999987	      9.38222332	     -2.76551381	      2.10417664	     20.26699633	      0.35372582	    -29.21842179	     -0.44912325	     -7.49999987	      9.29406623	     -0.67259220	     -5.28930114	     90.21443826	    -19.77485202	     61.11995529	     78.13242958	     76.64430344	     89.66158444	    -59.16294636	     47.12149166	    122.72668615	     74.05558792
